<svg id="Layer_2" data-name="Layer 2" xmlns="http://www.w3.org/2000/svg" viewBox="0 0 909.69 567.97"><defs><style>.cls-2{fill:#c11d48}.cls-4{fill:#b8197a}.cls-10{fill:#c7365d}.cls-12{fill:#b52f69}</style></defs><path d="M306.77 567.93H58.61c.59-.86 1.19-1.7 1.76-2.57l23.82-36q18.53-27.87 37.08-55.7 25.8-38.58 51.66-77.1c3 .66 6 1.11 8.89 2q47.79 14.73 95.55 29.58c6 1.87 12.06 3.77 18.13 5.5 4.13 1.17 6 .09 7.32-3.89.43-1.29.82-2.59 1.18-3.9q12.33-45.37 24.65-90.75l29.79-109.73q10-36.95 19.67-74c3.48-13.14 7.1-28 10.52-41.15 1.28 0 35.66 2.81 38.82 2.93l1.58.11 7 .36 1.12.11 8.56.56 20.28 1.2 27.45 1.63 1.47.06 3.67.11 3.53.24 3.33.08h1.47l5.59.11 4.5.24 4.75.08h1l6.55.13 4 .23 3.79.1h1l4.15.12 2.58.23 8.45.25 3.06.23 2.85.08h1l4.15.13 2.67.46 3.31.1h1l3.66.11 2.59.23 3.31.1h1l3.66.11 3.06.23 7.51.25 2.58.23 8 .26 3.06.23 2.26.15 1.47.07 4.12.14 3.08.21 2.37.07h1l4.14.12 3.06.24 3.32.09h1l5.09.12 4 .22 4.28.09h1.48l5.57.12 4 .24 3.32.09h1l4.11.14 2.61.21 1.89.08h1l2.28.09 2 .26 1.88.11h.5l1.81.08 1.58.26 1.38.07.52.06 1.8.09 1.57.27 1.4.1h.5l1.87.36 1.17.2 1.4.1h.5l1.32.08 1.11.24 1.38.07.52.07 1.78.1 1.59.26 3.21.22 1.58.32.05.1c1.26 4.38 2.27 8.85 3.83 13.11q26.26 71.72 52.81 143.32c2.08 5.6 5.78 10.6 8.73 15.88v3.59c0 5.32-.4 10.53 1.51 15.82q23.71 65.76 47 131.65c2.79 7.83 5.43 15.71 8.14 23.56-4.77 1.78-9.41 4.37-14.34 5.21-28.08 4.75-56.27 8.89-84.36 13.63-19 3.21-38 7.06-56.94 10.62-.56.05-1.12.06-1.67.15l-88.15 13.92q-42 6.63-83.89 13.26-23.82 3.78-47.61 7.66c-.55 0-1.12 0-1.67.14-26.28 4.11-52.58 8.15-78.84 12.38-19.41 3.13-38.77 6.5-58.15 9.8-3.88.7-6.92 2.54-8.24 6.47z" fill="#c44331"/><path class="cls-2" d="M708.59 127.81l3.28-.12h18.82a.57.57 0 00.27-.13l37.89-.36c2.95 0 5.92 0 8.85-.33 4.57-.48 6.27-2.31 6-6.93-.28-6-.93-11.94-1.47-17.91-1.2-13.36-2.55-27.72-3.63-41.09-1.59-19.59-3-39.19-4.48-58.78 0-.71-.24-1.42-.36-2.12h133.8c1.73 0 2.08.36 2.08 2.09-.06 45.88 0 92.76 0 138.64a7 7 0 00-.68.65L790.11 281.51c-5.33 6.27-10.77 12.44-16.16 18.65-3-5.28-6.65-10.28-8.73-15.88q-26.68-71.56-52.81-143.32c-1.55-4.3-2.56-8.77-3.82-13.15z"/><path d="M33.24 351.44l6.14-.48a14.09 14.09 0 002.86 2.1c5.88 2.27 11.76 4.64 17.76 6.55q46.29 14.7 92.66 29.15c6.71 2.1 13.5 3.94 20.25 5.9l.05 1.89-51.66 77.1q-18.58 27.81-37.08 55.7-11.94 18-23.82 36c-.57.87-1.17 1.71-1.76 2.57H2c-1.65 0-2-.32-2-2q.08-93.36.05-186.72a20 20 0 002.18-1.43q15.51-13.1 31.01-26.33z" fill="#c3353e"/><path class="cls-4" d="M675 504.2c19-3.56 37.91-7.41 56.94-10.62 28.09-4.74 56.28-8.88 84.36-13.63 4.93-.84 9.57-3.43 14.33-5.21 3.11-.15 6.22-.44 9.33-.44 10.31 0 20.61.05 30.92.09l15.64.29 23.16.13v91.2c0 1.64-.32 2-2 2q-131-.08-262.08 0a22.93 22.93 0 01.83-2.46c3.13-6.66 6.32-13.27 9.42-19.94q9.62-20.72 19.15-41.41z"/><path d="M870.85 474.39c-10.31 0-20.61-.12-30.92-.09-3.11 0-6.22.29-9.33.44-2.7-7.85-5.34-15.73-8.13-23.56q-23.44-65.85-47-131.65c-1.91-5.29-1.54-10.5-1.51-15.82 1.16.69 2.24 1.72 3.49 2q52.11 12.87 104.26 25.61c9.31 2.27 18.64 4.43 28 6.65v136.8l-23.16-.13z" fill="#ce4a6f"/><path d="M909.65 338c-9.33-2.22-18.66-4.38-28-6.65q-52.14-12.75-104.26-25.61c-1.25-.32-2.33-1.35-3.49-2v-3.59c5.39-6.21 10.83-12.38 16.16-18.65q59.45-70 118.85-140.09a7 7 0 01.68-.65z" fill="#b8187c"/><path class="cls-2" d="M675 504.2q-9.54 20.67-19.07 41.33c-3.1 6.67-6.29 13.28-9.42 19.94a22.93 22.93 0 00-.83 2.46h-192v-28.74q23.81-3.84 47.61-7.66 41.94-6.66 83.89-13.26l88.15-13.92c.52-.09 1.08-.1 1.67-.15z"/><path d="M429.17 9c-22.16 29.7-62.79 99.24-65.76 100.88l-2.9.69c-1.12-.1-2.23-.23-3.34-.3l-18.64-1c-4.53-.35-9.06-.77-13.6-1-7.25-.4-14.51-.71-21.76-1-7.45-.31-9-2.6-6.12-9.54C307.2 73.4 317.45 48.19 327.66 24q4.62-11 9.23-21.89a20.31 20.31 0 00.6-2.06H421c.78 1 1.5 2 2.36 3C425.26 5 427.23 7 429.17 9z" fill="#bc1b61"/><path class="cls-2" d="M429.17 9c-1.94-2-3.91-3.95-5.8-6-.86-.92-1.58-2-2.36-3h166.08c-5.15 8.7-10.27 17.37-15.46 26-14 23.35-28.13 47.69-42.22 71a44 44 0 01-3.14 4.53c-1.6 2-3.62 2.35-5.64.69a71.68 71.68 0 01-5.84-5.31c-27.66-28.19-55.28-57.4-82.93-85.59-.86-.84-1.79-1.56-2.69-2.32z"/><path d="M453.65 539.19v28.74H306.77c1.32-3.95 4.36-5.77 8.22-6.42 19.38-3.3 38.74-6.67 58.15-9.8 26.26-4.23 52.56-8.27 78.84-12.38.55-.09 1.12-.1 1.67-.14z" fill="#ce4b6d"/><path d="M.05 235.29c.79 2.24 1.74 4.44 2.37 6.72q11.87 43 23.63 86c1.07 3.93 1.83 7.94 2.74 11.91a12.17 12.17 0 01-1.86.42l-26.88 2z" fill="#cd5a68"/><path class="cls-10" d="M.05 342.33l26.88-2a12.17 12.17 0 001.86-.42l4.45 11.52-31 26.42a20 20 0 01-2.18 1.43z"/><path d="M360.51 110.55l2.9-.69a89.44 89.44 0 0125.22 1.23c-3.42 13.16-7 27.18-10.52 40.32q-9.78 37-19.67 74-14.81 54.88-29.79 109.73-12.33 45.33-24.65 90.7a76.04 76.04 0 01-1.18 3.9c-1.34 4-3.19 5.06-7.32 3.89-6.07-1.73-12.09-3.63-18.13-5.5q-47.77-14.79-95.55-29.58c-2.89-.89-5.92-1.34-8.89-2 0-.63 0-1.26-.05-1.89.73-1 1.52-1.85 2.18-2.85q13.35-20.22 26.68-40.46 28.74-43.43 57.54-86.8 19.32-29.1 38.7-58.14c11.51-17.32 23.08-34.6 34.45-52 9.49-14.54 18.73-29.23 28.08-43.86z" fill="#c55629"/><path class="cls-12" d="M512.54 117.81l4.5.24zm-120.34-5.92h1.94zm7.06.16l4 .23zm130.08 6.24l4 .23zM656 123.57l4 .24zm-15.32-.47l4 .22zm-142.06-5.77l3.53.24zm-5.14-.17l1.47.06zM649 123.41h1.48zm-20.79-.8l3.06.24zm-10.58-.45l3.08.21zm-112.15-4.51h1.47zm47.85 1.6l3.06.23zm32.16 1.44l3.06.23zM612 122l1.47.07zm-5.39-.34l3.06.23z"/><path class="cls-2" d="M415.94 112.71l2.05.11z"/><path class="cls-12" d="M542.3 118.77l2.58.23zm22.07.97l2.63.26zm104.13 4.34l2.61.21zm-72.44-2.91l2.58.23zm-21.13-.96l2.59.23zm-53.14-2.08h1zm15.36.49h1zm97.44 4.32h1z"/><path class="cls-2" d="M427.45 113.19l1.58.11z"/><path class="cls-12" d="M623.08 122.44h1zm-42.25-1.9h1zm-21.59-.98h1zm104.15 4.34h1zm9.61.47h1zm-102.73-4.31h1zm105.99 4.44l2 .26zm6.24.5l1.58.26z"/><path class="cls-2" d="M436.07 113.66l1.12.11z"/><path class="cls-12" d="M687.78 125.46l1.57.27zm19.22 1.93l1.58.32zm-4.84-.48l1.59.26zm-4.79-.48l1.11.24zM693 126l1.17.2zm-2.25-.17h.5zm-5.29-.52l.52.06zm-5.27-.44h.5zm19.67 1.87l.52.07zm-4.31-.43h.5z"/><path d="M360.51 110.55c-9.35 14.63-18.59 29.32-28.08 43.85-11.37 17.41-22.94 34.69-34.45 52q-19.32 29.09-38.7 58.14-28.8 43.38-57.54 86.8-13.38 20.2-26.68 40.46c-.66 1-1.45 1.9-2.18 2.85-6.75-2-13.54-3.8-20.25-5.9Q106.28 374.27 60 359.61c-6-1.91-11.85-4.28-17.73-6.55a14.09 14.09 0 01-2.86-2.1C53.63 339 67.67 326.71 82.16 315q50.39-40.68 101.11-80.95 67.65-54 135.36-108c5.5-4.39 11-8.75 16.47-13.21a38 38 0 003.43-3.62l18.64 1c1.11.1 2.22.23 3.34.33z" fill="#c34239"/><path class="cls-12" d="M730.69 127.7h-18.82l18.84-.26a2.45 2.45 0 00-.02.26z"/><path class="cls-10" d="M730.69 127.7a2.45 2.45 0 010-.27.48.48 0 01.25.14.57.57 0 01-.25.13z"/><path class="cls-12" d="M870.85 474.39l15.64.29z"/><path class="cls-4" d="M783.75 120c-.28-6-.93-11.94-1.47-17.91-1.2-13.36-2.55-27.72-3.63-41.09-1.59-19.59-3-39.19-4.48-58.78 0-.71-.24-1.42-.36-2.12H587.09c-5.15 8.6-10.27 17.27-15.46 25.9-14 23.35-28.13 47.69-42.22 71a44 44 0 01-3.14 4.53c-1.6 2-3.62 2.35-5.64.69a71.68 71.68 0 01-5.84-5.31c-27.66-28.19-55.28-57.4-82.93-85.59-.83-.85-1.79-1.57-2.69-2.35-22.17 29.71-65.76 100.89-65.76 100.89L490.09 117l3.39.2 1.47.06h1.19l4.88.24 1.13.08h.78l204.82 10.08-.1-.14.89.18.05.1 3.28-.12 18.84-.26a.48.48 0 01.25.14l37.89-.36c2.95 0 5.92 0 8.85-.33 4.57-.47 6.3-2.3 6.05-6.87z"/><path class="cls-2" d="M.05 235.29V2.21C0 .4.4 0 2.21 0q167.64.08 335.28.05a20.31 20.31 0 01-.6 2.06Q332.3 13 327.66 24c-10.21 24.19-20.46 49.4-30.61 73.65-2.91 6.94-1.33 9.23 6.12 9.54 7.25.3 14.51.61 21.76 1 4.54.25 9.07.67 13.6 1a38 38 0 01-3.43 3.62c-5.45 4.46-11 8.82-16.47 13.21l-135.36 108Q132.66 274.47 82.16 315c-14.49 11.71-28.53 24-42.78 36l-6.14.48-4.45-11.52C27.88 336 .84 237.53.05 235.29z"/></svg>